<?xml version="1.0" encoding="UTF-8" standalone="no"?>
<svg width="54px" height="54px" viewBox="0 0 54 54" version="1.1" xmlns="http://www.w3.org/2000/svg" xmlns:xlink="http://www.w3.org/1999/xlink" xmlns:sketch="http://www.bohemiancoding.com/sketch/ns">
    <!-- Generator: Sketch 3.4.4 (17249) - http://www.bohemiancoding.com/sketch -->
    <title>noun_184428_cc</title>
    <desc>Created with Sketch.</desc>
    <defs></defs>
    <g id="Quem-somos" stroke="none" stroke-width="1" fill="none" fill-rule="evenodd" sketch:type="MSPage">
        <g id="Quem-Somos-Desktop" sketch:type="MSArtboardGroup" transform="translate(-693.000000, -639.000000)" fill="#666666">
            <g id="Passo-a-Passo" sketch:type="MSLayerGroup" transform="translate(215.000000, 636.000000)">
                <g id="Card-2" transform="translate(355.000000, 0.000000)" sketch:type="MSShapeGroup">
                    <g id="Segurança-+-noun_823" transform="translate(61.000000, 3.000000)">
                        <g id="noun_184428_cc" transform="translate(62.000000, 0.000000)">
                            <g id="arrows-104">
                                <g id="Group">
                                    <g id="Shape">
                                        <path d="M27,54 C12.112,54 0,41.888 0,27 C0,12.112 12.112,0 27,0 C41.888,0 54,12.112 54,27 C54,41.888 41.888,54 27,54 L27,54 L27,54 Z M27,2 C13.215,2 2,13.215 2,27 C2,40.785 13.215,52 27,52 C40.785,52 52,40.785 52,27 C52,13.215 40.785,2 27,2 L27,2 L27,2 Z"></path>
                                        <path d="M19.929,38.068 L19.929,38.068 C18.858,38.067 17.853,37.653 17.101,36.899 C15.541,35.34 15.541,32.802 17.101,31.243 L31.243,17.101 C31.996,16.347 33,15.932 34.071,15.932 C35.142,15.932 36.146,16.347 36.899,17.101 C38.459,18.66 38.459,21.198 36.899,22.757 L22.757,36.899 C22.004,37.653 21,38.068 19.929,38.068 L19.929,38.068 L19.929,38.068 Z M34.071,17.932 C33.535,17.932 33.032,18.139 32.657,18.515 L18.515,32.657 C17.735,33.437 17.735,34.706 18.515,35.485 C19.266,36.237 20.593,36.236 21.343,35.485 L35.485,21.343 C36.265,20.563 36.265,19.294 35.485,18.515 C35.11,18.139 34.607,17.932 34.071,17.932 L34.071,17.932 L34.071,17.932 Z"></path>
                                        <path d="M19.222,24.222 C17.886,24.222 16.631,23.702 15.686,22.757 C14.742,21.813 14.222,20.558 14.222,19.222 C14.222,17.886 14.742,16.631 15.686,15.686 C16.631,14.742 17.886,14.222 19.222,14.222 C20.558,14.222 21.813,14.742 22.757,15.686 C24.707,17.636 24.707,20.808 22.757,22.757 C21.813,23.702 20.558,24.222 19.222,24.222 L19.222,24.222 L19.222,24.222 Z M19.222,16.222 C18.42,16.222 17.667,16.534 17.101,17.1 C16.534,17.667 16.222,18.421 16.222,19.222 C16.222,20.023 16.534,20.777 17.101,21.343 C18.234,22.476 20.209,22.477 21.343,21.343 C22.513,20.174 22.513,18.27 21.343,17.1 C20.776,16.534 20.023,16.222 19.222,16.222 L19.222,16.222 L19.222,16.222 Z"></path>
                                        <path d="M34.778,39.778 C33.442,39.778 32.187,39.258 31.243,38.314 C29.293,36.364 29.293,33.192 31.243,31.243 C32.187,30.298 33.442,29.778 34.778,29.778 C36.114,29.778 37.369,30.298 38.314,31.243 C40.263,33.192 40.263,36.364 38.314,38.314 C37.369,39.258 36.114,39.778 34.778,39.778 L34.778,39.778 L34.778,39.778 Z M34.778,31.778 C33.977,31.778 33.224,32.09 32.657,32.657 C31.487,33.826 31.487,35.73 32.657,36.9 C33.79,38.032 35.766,38.033 36.899,36.9 C38.069,35.73 38.069,33.826 36.899,32.657 C36.332,32.09 35.58,31.778 34.778,31.778 L34.778,31.778 L34.778,31.778 Z"></path>
                                    </g>
                                </g>
                            </g>
                        </g>
                    </g>
                </g>
            </g>
        </g>
    </g>
</svg>