<?xml version="1.0" encoding="UTF-8" standalone="no"?>
<svg width="60px" height="47px" viewBox="0 0 60 47" version="1.1" xmlns="http://www.w3.org/2000/svg" xmlns:xlink="http://www.w3.org/1999/xlink" xmlns:sketch="http://www.bohemiancoding.com/sketch/ns">
    <!-- Generator: Sketch 3.4.4 (17249) - http://www.bohemiancoding.com/sketch -->
    <title>Group</title>
    <desc>Created with Sketch.</desc>
    <defs></defs>
    <g id="Home" stroke="none" stroke-width="1" fill="none" fill-rule="evenodd" sketch:type="MSPage">
        <g id="Home-Desktop" sketch:type="MSArtboardGroup" transform="translate(-1089.000000, -552.000000)" fill="#666666">
            <g id="Passo-a-Passo" sketch:type="MSLayerGroup" transform="translate(171.000000, 537.000000)">
                <g id="Card-3" transform="translate(794.000000, 15.000000)" sketch:type="MSShapeGroup">
                    <g id="Constante-atualizaçã-+-noun_145705_cc" transform="translate(18.000000, 0.000000)">
                        <g id="noun_145705_cc" transform="translate(106.000000, 0.000000)">
                            <g id="Group">
                                <path d="M59.627234,29.0136081 L30.9695745,0.431891892 C30.7302128,0.193081081 30.4059574,0.0590675676 30.0670213,0.0584324324 L30.0657447,0.0584324324 C29.7280851,0.0584324324 29.4031915,0.191810811 29.1638298,0.429351351 L20.3578723,9.17198649 L20.3578723,5.65651351 C20.3578723,4.95532432 19.7859574,4.38624324 19.0812766,4.38624324 L12.2987234,4.38624324 C11.5940426,4.38624324 11.0221277,4.95532432 11.0221277,5.65651351 L11.0221277,18.4405135 L0.374680851,29.0110676 C0.00957446809,29.3743649 -0.100212766,29.9212162 0.0963829787,30.3962973 C0.294255319,30.8707432 0.759574468,31.1806892 1.27659574,31.1806892 L10.9174468,31.1806892 L10.9174468,45.6712973 C10.9174468,46.3724865 11.4893617,46.9415676 12.1940426,46.9415676 L48.7544681,46.9415676 C49.4591489,46.9415676 50.0310638,46.3724865 50.0310638,45.6712973 L50.0310638,31.1806892 L58.7234043,31.1806892 C59.2397872,31.1806892 59.7044681,30.8720135 59.9029787,30.3975676 C60.1002128,29.9224865 59.9917021,29.3769054 59.627234,29.0136081 L59.627234,29.0136081 Z M48.7551064,28.6401486 C48.0504255,28.6401486 47.4785106,29.2092297 47.4785106,29.9104189 L47.4785106,44.401027 L13.4706383,44.401027 L13.4706383,29.9104189 C13.4706383,29.2092297 12.8987234,28.6401486 12.1940426,28.6401486 L4.36340426,28.6401486 L13.2006383,19.867027 C13.4406383,19.6288514 13.5753191,19.3049324 13.5753191,18.9676757 L13.5753191,6.92678378 L17.8046809,6.92678378 L17.8046809,12.2333378 C17.8046809,12.7471622 18.1148936,13.2095405 18.5917021,13.4070676 C19.0678723,13.6026892 19.6168085,13.4959865 19.9825532,13.1326892 L30.0638298,3.12486486 L55.6468085,28.6401486 L48.7551064,28.6401486 L48.7551064,28.6401486 Z" id="Shape"></path>
                                <path d="M28.7234043,14.8856622 L28.7234043,17.3182297 L27.1570213,17.3182297 C24.18,17.3182297 21.7582979,19.7285676 21.7582979,22.6908378 C21.7582979,25.652473 24.18,28.0621757 27.1570213,28.0621757 L28.7234043,28.0621757 L28.7234043,33.7256757 L23.0348936,33.7256757 C22.3302128,33.7256757 21.7582979,34.2947568 21.7582979,34.9959459 C21.7582979,35.6971351 22.3302128,36.2662162 23.0348936,36.2662162 L28.7234043,36.2662162 L28.7234043,38.6975135 C28.7234043,39.3987027 29.2953191,39.9677838 30,39.9677838 C30.7046809,39.9677838 31.2765957,39.3987027 31.2765957,38.6975135 L31.2765957,36.2662162 L32.8429787,36.2662162 C35.82,36.2662162 38.2417021,33.8565135 38.2417021,30.8942432 C38.2417021,27.931973 35.82,25.5216351 32.8429787,25.5216351 L31.2765957,25.5216351 L31.2765957,19.8587703 L36.2680851,19.8587703 C36.972766,19.8587703 37.5446809,19.2896892 37.5446809,18.5885 C37.5446809,17.8873108 36.972766,17.3182297 36.2680851,17.3182297 L31.2765957,17.3182297 L31.2765957,14.8856622 C31.2765957,14.184473 30.7046809,13.6153919 30,13.6153919 C29.2953191,13.6153919 28.7234043,14.1838378 28.7234043,14.8856622 L28.7234043,14.8856622 Z M32.8429787,28.0621757 C34.4119149,28.0621757 35.6885106,29.3324459 35.6885106,30.8942432 C35.6885106,32.4554054 34.4119149,33.7256757 32.8429787,33.7256757 L31.2765957,33.7256757 L31.2765957,28.0621757 L32.8429787,28.0621757 L32.8429787,28.0621757 Z M28.7234043,25.5216351 L27.1570213,25.5216351 C25.5880851,25.5216351 24.3114894,24.252 24.3114894,22.6908378 C24.3114894,21.1290405 25.5880851,19.8587703 27.1570213,19.8587703 L28.7234043,19.8587703 L28.7234043,25.5216351 L28.7234043,25.5216351 Z" id="Shape"></path>
                            </g>
                        </g>
                    </g>
                </g>
            </g>
        </g>
    </g>
</svg>