<?xml version="1.0" encoding="UTF-8" standalone="no"?>
<svg width="35px" height="46px" viewBox="0 0 35 46" version="1.1" xmlns="http://www.w3.org/2000/svg" xmlns:xlink="http://www.w3.org/1999/xlink" xmlns:sketch="http://www.bohemiancoding.com/sketch/ns">
    <!-- Generator: Sketch 3.4.4 (17249) - http://www.bohemiancoding.com/sketch -->
    <title>noun_823</title>
    <desc>Created with Sketch.</desc>
    <defs></defs>
    <g id="Home" stroke="none" stroke-width="1" fill="none" fill-rule="evenodd" sketch:type="MSPage">
        <g id="Mobile-Portrait" sketch:type="MSArtboardGroup" transform="translate(-134.000000, -791.000000)" fill="#666666">
            <g id="Passo-a-Passo" sketch:type="MSLayerGroup" transform="translate(13.000000, 564.000000)">
                <g id="Card-2" transform="translate(1.000000, 215.000000)" sketch:type="MSShapeGroup">
                    <g id="Segurança-+-noun_823" transform="translate(87.000000, 12.000000)">
                        <g id="noun_823" transform="translate(33.000000, 0.000000)">
                            <path d="M32.0833333,20.921375 L32.0833333,11.5 C32.0833333,5.15775 26.8479167,0 20.4166667,0 L14.5833333,0 C8.15208333,0 2.91666667,5.15775 2.91666667,11.5 L2.91666667,20.921375 C1.17833333,21.919 0,23.75325 0,25.875 L0,40.25 C0,43.424 2.61333333,46 5.83333333,46 L29.1666667,46 C32.3866667,46 35,43.424 35,40.25 L35,25.875 C35,23.75325 33.8216667,21.919 32.0833333,20.921375 L32.0833333,20.921375 Z M20.4166667,33.703625 L20.4166667,40.25 L14.5833333,40.25 L14.5833333,33.703625 C12.845,32.706 11.6666667,30.87175 11.6666667,28.75 C11.6666667,25.576 14.28,23 17.5,23 C20.72,23 23.3333333,25.576 23.3333333,28.75 C23.3333333,30.87175 22.155,32.706 20.4166667,33.703625 L20.4166667,33.703625 Z M26.25,20.125 L8.75,20.125 L8.75,11.5 C8.75,8.328875 11.3633333,5.75 14.5833333,5.75 L20.4166667,5.75 C23.6366667,5.75 26.25,8.328875 26.25,11.5 L26.25,20.125 L26.25,20.125 Z" id="Shape"></path>
                        </g>
                    </g>
                </g>
            </g>
        </g>
    </g>
</svg>