<?xml version="1.0" encoding="UTF-8" standalone="no"?>
<svg width="48px" height="48px" viewBox="0 0 48 48" version="1.1" xmlns="http://www.w3.org/2000/svg" xmlns:xlink="http://www.w3.org/1999/xlink" xmlns:sketch="http://www.bohemiancoding.com/sketch/ns">
    <!-- Generator: Sketch 3.4.4 (17249) - http://www.bohemiancoding.com/sketch -->
    <title>noun_178782_cc</title>
    <desc>Created with Sketch.</desc>
    <defs></defs>
    <g id="Quem-somos" stroke="none" stroke-width="1" fill="none" fill-rule="evenodd" sketch:type="MSPage">
        <g id="Quem-Somos-Desktop" sketch:type="MSArtboardGroup" transform="translate(-998.000000, -650.000000)" fill="#666666">
            <g id="Passo-a-Passo" sketch:type="MSLayerGroup" transform="translate(215.000000, 636.000000)">
                <g id="Card-3" transform="translate(705.000000, 14.000000)" sketch:type="MSShapeGroup">
                    <g id="Constante-atualizaçã-+-noun_145705_cc" transform="translate(36.000000, 0.000000)">
                        <g id="noun_178782_cc" transform="translate(42.000000, 0.000000)">
                            <g id="Group">
                                <path d="M43.6875,32.5376147 L43.625,32.4743119 L38.9375,29.4990826 C37.625,28.5495413 36.1875,28.2963303 34.6875,28.7394495 C32.9375,29.2458716 31.4375,30.8284404 30.6875,32.8541284 L30.6875,32.8541284 L30.6875,32.8541284 C30.25,34.1201835 29.5,34.5633028 28.1875,34.3733945 C23.375,33.740367 15.1875,25.0045872 14.6875,20.0036697 C14.5625,18.6110092 15,17.8513761 16.25,17.4715596 L16.25,17.4715596 L16.25,17.4715596 C18,16.7752294 19.25,15.5091743 19.75,13.9266055 C20.1875,12.3440367 19.875,10.6981651 18.8125,9.17889908 L15.875,4.43119266 L15.8125,4.36788991 C14.375,2.40550459 12.875,1.39266055 11.0625,1.26605505 C8.8125,1.07614679 6.375,2.34220183 3.6875,5.06422018 C-2.75,11.5844037 2.75,27.0302752 12,36.3990826 C18.4375,42.9192661 27.8125,47.6669725 35.125,47.6669725 C38.125,47.6669725 40.75,46.8440367 42.6875,45.0715596 C42.8125,45.0082569 42.9375,44.9449541 43,44.8183486 C45.6875,42.0963303 46.9375,39.6275229 46.75,37.3486239 C46.625,35.512844 45.625,33.9302752 43.6875,32.5376147 L43.6875,32.5376147 Z M41.375,42.7926606 C41.3125,42.8559633 41.1875,42.9192661 41.125,42.9825688 C36.1875,47.9834862 22.875,43.8688073 13.6875,34.5633028 C4.5625,25.3211009 0.5625,11.8376147 5.5,6.83669725 C7.625,4.68440367 9.4375,3.60825688 10.9375,3.73486239 C11.9375,3.79816514 12.875,4.49449541 13.8125,5.76055046 L16.75,10.5082569 L16.8125,10.5715596 C17.4375,11.3944954 17.625,12.3440367 17.375,13.1669725 C17.125,13.9899083 16.4375,14.6862385 15.375,15.066055 L15.375,15.066055 C13.125,15.8256881 11.9375,17.7247706 12.1875,20.2568807 C12.8125,26.4605505 21.875,36.0825688 27.875,36.9055046 C28.125,36.9688073 28.4375,36.9688073 28.6875,36.9688073 C30.75,36.9688073 32.3125,35.8293578 33.0625,33.8036697 L33.0625,33.8036697 C33.5625,32.5376147 34.4375,31.5247706 35.4375,31.2082569 C36.125,31.0183486 36.8125,31.1449541 37.5,31.6513761 L37.5625,31.7146789 L42.25,34.6899083 C43.5625,35.6394495 44.1875,36.5889908 44.25,37.6018349 C44.375,38.9311927 43.375,40.7036697 41.375,42.7926606 L41.375,42.7926606 Z" id="Shape"></path>
                                <path d="M24.9375,0.506422018 C24.25,0.506422018 23.6875,1.07614679 23.6875,1.77247706 C23.6875,2.46880734 24.25,3.03853211 24.9375,3.03853211 C36.0625,3.03853211 45.125,12.2174312 45.125,23.4853211 C45.125,24.1816514 45.6875,24.7513761 46.375,24.7513761 C47.0625,24.7513761 47.625,24.1816514 47.625,23.4853211 C47.625,10.7614679 37.4375,0.506422018 24.9375,0.506422018 L24.9375,0.506422018 Z" id="Shape"></path>
                                <path d="M24.9375,8.16605505 C33.25,8.16605505 40.0625,15.0027523 40.0625,23.4853211 C40.0625,24.1816514 40.625,24.7513761 41.3125,24.7513761 C42,24.7513761 42.5625,24.1816514 42.5625,23.4853211 C42.5625,13.6733945 34.6875,5.63394495 24.9375,5.63394495 C24.25,5.63394495 23.6875,6.20366972 23.6875,6.9 C23.6875,7.59633028 24.25,8.16605505 24.9375,8.16605505 L24.9375,8.16605505 Z" id="Shape"></path>
                                <path d="M24.9375,13.4201835 C30.4375,13.4201835 34.875,17.9146789 34.875,23.4220183 C34.875,24.1183486 35.4375,24.6880734 36.125,24.6880734 C36.8125,24.6880734 37.375,24.1183486 37.375,23.4220183 C37.375,16.4587156 31.8125,10.8247706 24.9375,10.8247706 C24.25,10.8247706 23.6875,11.3944954 23.6875,12.0908257 C23.6875,12.8504587 24.25,13.4201835 24.9375,13.4201835 L24.9375,13.4201835 Z" id="Shape"></path>
                            </g>
                        </g>
                    </g>
                </g>
            </g>
        </g>
    </g>
</svg>