<?xml version="1.0" encoding="UTF-8" standalone="no"?>
<svg width="50px" height="55px" viewBox="0 0 50 55" version="1.1" xmlns="http://www.w3.org/2000/svg" xmlns:xlink="http://www.w3.org/1999/xlink" xmlns:sketch="http://www.bohemiancoding.com/sketch/ns">
    <!-- Generator: Sketch 3.4.4 (17249) - http://www.bohemiancoding.com/sketch -->
    <title>Group</title>
    <desc>Created with Sketch.</desc>
    <defs></defs>
    <g id="Home" stroke="none" stroke-width="1" fill="none" fill-rule="evenodd" sketch:type="MSPage">
        <g id="Mobile-Portrait" sketch:type="MSArtboardGroup" transform="translate(-137.000000, -575.000000)" fill="#666666">
            <g id="Passo-a-Passo" sketch:type="MSLayerGroup" transform="translate(13.000000, 564.000000)">
                <g id="Card-1" transform="translate(0.000000, 0.555000)" sketch:type="MSShapeGroup">
                    <g id="Agilidade-+-Group" transform="translate(94.000000, 11.000000)">
                        <g id="Group" transform="translate(30.000000, 0.000000)">
                            <path d="M5.58481153,51.0557143 C9.81152993,50.2778571 14.1768293,49.005 16.1862528,43.7014286 C16.1862528,43.6307143 16.1169623,43.4892857 15.9783814,43.4892857 C14.1768293,44.55 11.8209534,44.6914286 11.0587583,44.6914286 C10.8508869,44.6914286 10.7815965,44.6207143 10.7815965,44.4085714 C10.712306,43.6307143 10.5044346,41.2264286 11.3359202,39.3171429 C11.4052106,39.2464286 11.2666297,39.105 11.1280488,39.105 C6.20842572,41.7921429 5.4462306,46.3178571 5.16906874,50.7021429 C5.2383592,50.9142857 5.4462306,51.0557143 5.58481153,51.0557143 L5.58481153,51.0557143 Z" id="Shape"></path>
                            <path d="M18.6114191,20.0121429 C8.91075388,20.79 2.88248337,26.8714286 0.180155211,29.8414286 C-0.0277161863,30.1242857 0.180155211,30.5485714 0.595898004,30.3364286 C6.06984479,28.4978571 11.4745011,29.3464286 13.3453437,29.7707143 C13.7610865,29.8414286 13.8996674,30.2657143 13.8303769,30.5485714 L12.5831486,35.3571429 C12.5138581,35.64 12.652439,36.0642857 12.9988914,36.135 C13.7610865,36.4178571 15.1468958,37.0542857 16.4634146,38.1857143 C17.7799335,39.4585714 18.6114191,40.7314286 18.8885809,41.5092857 C19.0964523,41.7921429 19.3736142,41.9335714 19.6507761,41.7921429 L24.1546563,39.9535714 C24.5703991,39.8828571 24.847561,39.9535714 25.0554324,40.3778571 C25.6097561,42.1457143 27.2034368,47.6614286 25.9562084,53.3892857 C25.886918,53.6721429 26.2333703,53.955 26.5105322,53.6721429 C29.1435698,50.6314286 34.3403548,43.8428571 33.924612,33.8721429 C33.924612,33.66 33.9939024,33.5892857 34.1324834,33.4478571 C47.6441242,21.4264286 49.6535477,7.49571429 49.8614191,0 C42.6552106,1.06071429 29.2128603,4.73785714 19.0964523,19.8 C18.8885809,19.8707143 18.8192905,20.0121429 18.6114191,20.0121429 L18.6114191,20.0121429 Z M35.5875831,16.2642857 C37.5970067,18.1028571 37.804878,21.3557143 36.0033259,23.4771429 C34.2017738,25.5278571 31.0144124,25.74 28.9356984,23.9014286 C26.9262749,22.0628571 26.7184035,18.81 28.5199557,16.6885714 C30.3907982,14.5671429 33.5781596,14.355 35.5875831,16.2642857 L35.5875831,16.2642857 Z" id="Shape"></path>
                        </g>
                    </g>
                </g>
            </g>
        </g>
    </g>
</svg>