<?xml version="1.0" encoding="UTF-8" standalone="no"?>
<svg width="75px" height="73px" viewBox="0 0 75 73" version="1.1" xmlns="http://www.w3.org/2000/svg" xmlns:xlink="http://www.w3.org/1999/xlink" xmlns:sketch="http://www.bohemiancoding.com/sketch/ns">
    <!-- Generator: Sketch 3.4.4 (17249) - http://www.bohemiancoding.com/sketch -->
    <title>Group</title>
    <desc>Created with Sketch.</desc>
    <defs></defs>
    <g id="Como-funciona" stroke="none" stroke-width="1" fill="none" fill-rule="evenodd" sketch:type="MSPage">
        <g id="Como-funciona-Desktop" sketch:type="MSArtboardGroup" transform="translate(-683.000000, -404.000000)" fill="#000000">
            <g id="Dúvidas-frequentes" sketch:type="MSLayerGroup" transform="translate(366.000000, 404.000000)">
                <g id="noun_118559_cc" transform="translate(317.000000, 0.000000)" sketch:type="MSShapeGroup">
                    <g id="Group">
                        <g id="Shape">
                            <path d="M37.5,0 C17.3641304,0 0.97826087,16.3033333 0.815217391,36.2566667 C0.733695652,45.99 4.48369565,55.2366667 11.4130435,62.1311111 C18.2608696,69.1066667 27.4728261,72.9188889 37.2554348,73 L37.5,73 C57.6358696,73 74.0217391,56.6966667 74.1847826,36.7433333 C74.3478261,16.6277778 57.9619565,0.162222222 37.5,0 L37.5,0 Z M37.5,68.0522222 L37.2554348,68.0522222 C28.7771739,67.9711111 20.8695652,64.6455556 14.8369565,58.6433333 C8.9673913,52.7222222 5.70652174,44.7733333 5.78804348,36.3377778 C5.86956522,19.0611111 20.1358696,4.94777778 37.7445652,4.94777778 C55.2717391,5.02888889 69.375,19.3044444 69.2934783,36.7433333 C69.1304348,54.02 54.8641304,68.0522222 37.5,68.0522222 L37.5,68.0522222 Z"></path>
                            <path d="M37.6630435,51.3433333 C35.625,51.3433333 33.9130435,53.0466667 33.9130435,55.0744444 L33.9130435,55.1555556 C33.9130435,57.1833333 35.625,58.8866667 37.6630435,58.8866667 C39.701087,58.8866667 41.4130435,57.1833333 41.4130435,55.1555556 L41.4130435,54.9933333 C41.4130435,52.9655556 39.701087,51.3433333 37.6630435,51.3433333 L37.6630435,51.3433333 Z"></path>
                            <path d="M37.5,15.0055556 C29.5923913,15.0055556 23.1521739,21.4133333 23.1521739,29.2811111 C23.1521739,30.5788889 24.2119565,31.6333333 25.5163043,31.6333333 C26.8206522,31.6333333 27.8804348,30.5788889 27.8804348,29.2811111 C27.8804348,24.0088889 32.201087,19.71 37.5,19.71 C41.1684783,19.71 44.2663043,21.17 45.8152174,23.6033333 C48.2608696,27.4155556 46.6304348,31.2277778 44.3478261,33.58 C43.6956522,34.2288889 42.8804348,34.9588889 41.9836957,35.6888889 C38.9673913,38.2033333 35.1358696,41.2855556 35.1358696,45.9088889 C35.1358696,47.2066667 36.1956522,48.2611111 37.5,48.2611111 C38.8043478,48.2611111 39.8641304,47.2066667 39.8641304,45.9088889 C39.8641304,43.5566667 42.4728261,41.3666667 44.9184783,39.3388889 C45.8967391,38.5277778 46.875,37.7166667 47.6902174,36.9055556 C52.2554348,32.3633333 53.0706522,26.1988889 49.8097826,21.0888889 C47.4456522,17.2766667 42.798913,15.0055556 37.5,15.0055556 L37.5,15.0055556 Z"></path>
                        </g>
                    </g>
                </g>
            </g>
        </g>
    </g>
</svg>