<?xml version="1.0" encoding="UTF-8" standalone="no"?>
<svg width="57px" height="57px" viewBox="0 0 57 57" version="1.1" xmlns="http://www.w3.org/2000/svg" xmlns:xlink="http://www.w3.org/1999/xlink" xmlns:sketch="http://www.bohemiancoding.com/sketch/ns">
    <!-- Generator: Sketch 3.4.4 (17249) - http://www.bohemiancoding.com/sketch -->
    <title>noun_256135_cc</title>
    <desc>Created with Sketch.</desc>
    <defs></defs>
    <g id="Quem-somos" stroke="none" stroke-width="1" fill="none" fill-rule="evenodd" sketch:type="MSPage">
        <g id="Quem-Somos-Desktop" sketch:type="MSArtboardGroup" transform="translate(-348.000000, -637.000000)" fill="#000000" opacity="0.49766791">
            <g id="Passo-a-Passo" sketch:type="MSLayerGroup" transform="translate(215.000000, 636.000000)">
                <g id="Card-1" transform="translate(0.000000, 0.555000)" sketch:type="MSShapeGroup">
                    <g id="noun_256135_cc" transform="translate(132.000000, 0.445000)">
                        <g id="Group">
                            <path d="M21.5,27.9521368 C21.5,28.4512821 21.0625,28.8880342 20.5625,28.8880342 L17.0625,28.8880342 C16.5625,28.8880342 16.125,28.4512821 16.125,27.9521368 L16.125,24.4581197 C16.125,23.9589744 16.5625,23.5222222 17.0625,23.5222222 L20.5625,23.5222222 C21.0625,23.5222222 21.5,23.9589744 21.5,24.4581197 L21.5,27.9521368 L21.5,27.9521368 Z M28.875,24.4581197 C28.875,23.9589744 28.4375,23.5222222 27.9375,23.5222222 L24.4375,23.5222222 C23.9375,23.5222222 23.5,23.9589744 23.5,24.4581197 L23.5,27.9521368 C23.5,28.4512821 23.9375,28.8880342 24.4375,28.8880342 L27.9375,28.8880342 C28.4375,28.8880342 28.875,28.4512821 28.875,27.9521368 L28.875,24.4581197 L28.875,24.4581197 Z M36.25,24.4581197 C36.25,23.9589744 35.8125,23.5222222 35.3125,23.5222222 L31.75,23.5222222 C31.25,23.5222222 30.8125,23.9589744 30.8125,24.4581197 L30.8125,27.9521368 C30.8125,28.4512821 31.25,28.8880342 31.75,28.8880342 L35.25,28.8880342 C35.75,28.8880342 36.1875,28.4512821 36.1875,27.9521368 L36.1875,24.4581197 L36.25,24.4581197 Z M21.5,31.5709402 C21.5,31.0717949 21.0625,30.6350427 20.5625,30.6350427 L17.0625,30.6350427 C16.5625,30.6350427 16.125,31.0717949 16.125,31.5709402 L16.125,35.0649573 C16.125,35.5641026 16.5625,36.0008547 17.0625,36.0008547 L20.5625,36.0008547 C21.0625,36.0008547 21.5,35.5641026 21.5,35.0649573 L21.5,31.5709402 L21.5,31.5709402 Z M28.875,31.5709402 C28.875,31.0717949 28.4375,30.6350427 27.9375,30.6350427 L24.4375,30.6350427 C23.9375,30.6350427 23.5,31.0717949 23.5,31.5709402 L23.5,35.0649573 C23.5,35.5641026 23.9375,36.0008547 24.4375,36.0008547 L27.9375,36.0008547 C28.4375,36.0008547 28.875,35.5641026 28.875,35.0649573 L28.875,31.5709402 L28.875,31.5709402 Z M35.3125,30.6350427 L31.75,30.6350427 C31.25,30.6350427 30.8125,31.0717949 30.8125,31.5709402 L30.8125,35.0649573 C30.8125,35.5641026 31.25,36.0008547 31.75,36.0008547 L35.25,36.0008547 C35.75,36.0008547 36.1875,35.5641026 36.1875,35.0649573 L36.1875,31.5709402 C36.25,31.0717949 35.8125,30.6350427 35.3125,30.6350427 L35.3125,30.6350427 Z M13.1875,37.8102564 L9.6875,37.8102564 C9.1875,37.8102564 8.75,38.2470085 8.75,38.7461538 L8.75,42.2401709 C8.75,42.7393162 9.1875,43.1760684 9.6875,43.1760684 L13.1875,43.1760684 C13.6875,43.1760684 14.125,42.7393162 14.125,42.2401709 L14.125,38.7461538 C14.125,38.2470085 13.75,37.8102564 13.1875,37.8102564 L13.1875,37.8102564 Z M14.125,31.5709402 C14.125,31.0717949 13.6875,30.6350427 13.1875,30.6350427 L9.6875,30.6350427 C9.1875,30.6350427 8.75,31.0717949 8.75,31.5709402 L8.75,35.0649573 C8.75,35.5641026 9.1875,36.0008547 9.6875,36.0008547 L13.1875,36.0008547 C13.6875,36.0008547 14.125,35.5641026 14.125,35.0649573 L14.125,31.5709402 L14.125,31.5709402 Z M27.9375,37.8102564 L24.4375,37.8102564 C23.9375,37.8102564 23.5,38.2470085 23.5,38.7461538 L23.5,42.2401709 C23.5,42.7393162 23.9375,43.1760684 24.4375,43.1760684 L27.9375,43.1760684 C28.4375,43.1760684 28.875,42.7393162 28.875,42.2401709 L28.875,38.7461538 C28.875,38.2470085 28.4375,37.8102564 27.9375,37.8102564 L27.9375,37.8102564 Z M20.5625,37.8102564 L17.0625,37.8102564 C16.5625,37.8102564 16.125,38.2470085 16.125,38.7461538 L16.125,42.2401709 C16.125,42.7393162 16.5625,43.1760684 17.0625,43.1760684 L20.5625,43.1760684 C21.0625,43.1760684 21.5,42.7393162 21.5,42.2401709 L21.5,38.7461538 C21.5,38.2470085 21.0625,37.8102564 20.5625,37.8102564 L20.5625,37.8102564 Z M42.625,28.8880342 C43.125,28.8880342 43.5625,28.4512821 43.5625,27.9521368 L43.5625,24.4581197 C43.5625,23.9589744 43.125,23.5222222 42.625,23.5222222 L39.125,23.5222222 C38.625,23.5222222 38.1875,23.9589744 38.1875,24.4581197 L38.1875,27.9521368 C38.1875,28.4512821 38.625,28.8880342 39.125,28.8880342 L42.625,28.8880342 L42.625,28.8880342 Z M6.4375,50.8504274 L33.1875,50.8504274 C32.75,49.4777778 32.5,48.042735 32.5,46.6076923 L6.4375,46.6076923 C5.75,46.6076923 5.1875,46.0461538 5.1875,45.3598291 L5.1875,20.2153846 L47.125,20.2153846 L47.125,31.9452991 C48.625,31.9452991 50.0625,32.1948718 51.375,32.5692308 L51.375,11.3555556 C51.375,8.2982906 48.875,5.86495726 45.875,5.86495726 L39.6875,5.86495726 L39.6875,2.43333333 C39.6875,1.31025641 38.8125,0.436752137 37.6875,0.436752137 L34.5625,0.436752137 C33.4375,0.436752137 32.5625,1.31025641 32.5625,2.43333333 L32.5625,5.86495726 L19.8125,5.86495726 L19.8125,2.43333333 C19.8125,1.31025641 18.9375,0.436752137 17.8125,0.436752137 L14.6875,0.436752137 C13.5625,0.436752137 12.6875,1.31025641 12.6875,2.43333333 L12.6875,5.86495726 L6.5,5.86495726 C3.4375,5.86495726 1,8.36068376 1,11.3555556 L1,45.2974359 C0.875,48.3547009 3.375,50.8504274 6.4375,50.8504274 L6.4375,50.8504274 Z M57.625,46.4205128 C57.625,52.2230769 52.875,56.9649573 47.0625,56.9649573 C41.25,56.9649573 36.5,52.2230769 36.5,46.4205128 C36.5,40.6179487 41.25,35.8760684 47.0625,35.8760684 C52.875,35.8760684 57.625,40.6179487 57.625,46.4205128 L57.625,46.4205128 Z M52.375,43.6752137 C52.375,43.3632479 52.25,42.9888889 52,42.8017094 C51.5,42.3025641 50.6875,42.3025641 50.1875,42.8017094 L45.625,47.3564103 L43.875,45.6094017 C43.375,45.1102564 42.5625,45.1102564 42.0625,45.6094017 C41.8125,45.8589744 41.6875,46.1709402 41.6875,46.482906 C41.6875,46.7948718 41.8125,47.1068376 42.0625,47.3564103 L44.6875,49.9769231 C45.1875,50.4760684 46,50.4760684 46.5,49.9769231 L52,44.4863248 C52.25,44.3615385 52.375,44.0495726 52.375,43.6752137 L52.375,43.6752137 Z" id="Shape"></path>
                        </g>
                    </g>
                </g>
            </g>
        </g>
    </g>
</svg>