<?xml version="1.0" encoding="UTF-8" standalone="no"?>
<svg width="190px" height="33px" viewBox="0 0 190 33" version="1.1" xmlns="http://www.w3.org/2000/svg" xmlns:xlink="http://www.w3.org/1999/xlink" xmlns:sketch="http://www.bohemiancoding.com/sketch/ns">
    <!-- Generator: Sketch 3.4.4 (17249) - http://www.bohemiancoding.com/sketch -->
    <title>Page 1</title>
    <desc>Created with Sketch.</desc>
    <defs>
        <path id="path-1" d="M0.0580456026,38.8541111 L189.78758,38.8541111 L189.78758,0.143 L0.0580456026,0.143 L0.0580456026,38.8541111 Z"></path>
    </defs>
    <g id="Quem-somos" stroke="none" stroke-width="1" fill="none" fill-rule="evenodd" sketch:type="MSPage">
        <g id="Quem-Somos-Desktop" sketch:type="MSArtboardGroup" transform="translate(-173.000000, -37.000000)">
            <g id="Page-1" sketch:type="MSLayerGroup" transform="translate(173.000000, 36.000000)">
                <mask id="mask-2" sketch:name="Clip 1" fill="white">
                    <use xlink:href="#path-1"></use>
                </mask>
                <g id="Clip-1"></g>
                <text id="Cred" sketch:type="MSTextLayer" mask="url(#mask-2)" font-family="Montserrat" font-size="31.7752182" font-weight="bold" letter-spacing="-0.0134853423" fill="#FFFFFF">
                    <tspan x="-0.879478827" y="32.2769221">Cre</tspan>
                    <tspan x="53.7652157" y="32.2769221">d</tspan>
                </text>
                <text id="e" sketch:type="MSTextLayer" mask="url(#mask-2)" font-family="Montserrat" font-size="31.7752182" font-weight="bold" fill="#FFFFFF">
                    <tspan x="74.7886065" y="32.2769221">e</tspan>
                </text>
                <text id="s" sketch:type="MSTextLayer" mask="url(#mask-2)" font-family="Montserrat" font-size="31.7752182" font-weight="bold" fill="#FFFFFF">
                    <tspan x="93.4556279" y="32.2769221">s</tspan>
                </text>
                <text id="tilo" sketch:type="MSTextLayer" mask="url(#mask-2)" font-family="Montserrat" font-size="31.7752182" font-weight="bold" letter-spacing="-0.0131921831" fill="#FFFFFF">
                    <tspan x="108.199329" y="32.2769221">til</tspan>
                    <tspan x="142.06391" y="32.2769221">o</tspan>
                </text>
                <path d="M190.78758,18.93944 C190.71986,19.0873511 190.656244,19.2286178 190.59087,19.3687289 C190.264583,20.0663956 189.93214,20.7608844 189.52201,21.4163733 C188.86885,22.4607067 188.088166,23.4001733 187.172042,24.2324622 C185.768101,25.5079067 184.160707,26.4410178 182.352498,27.0398844 C181.429046,27.3455289 180.481261,27.5442844 179.512075,27.6373067 C178.579534,27.7268622 177.64758,27.7187733 176.715919,27.6121733 C175.805951,27.5073067 174.91973,27.3030622 174.049339,27.0245733 C173.597287,26.87984 173.132629,26.7934622 172.656831,26.7871067 C172.126212,26.7801733 171.613476,26.8833067 171.125658,27.0889956 C170.860935,27.2002178 170.602661,27.32704 170.346147,27.4555956 C168.920511,28.1700178 167.411326,28.6293511 165.838524,28.8985956 C165.672596,28.9269067 165.505788,28.9531956 165.317873,28.9843956 C165.370935,28.90784 165.411977,28.8468844 165.455365,28.7873733 C165.877221,28.2038178 166.308459,27.62604 166.719762,27.0352622 C167.16302,26.3991289 167.512173,25.7173511 167.727352,24.96884 C168.026375,23.9259511 167.82644,22.9749289 167.212564,22.09844 C166.795104,21.5024622 166.388785,20.9009956 166.056635,20.2538844 C165.441,19.0552844 165.025593,17.7925511 164.810121,16.4662622 C164.675267,15.6345511 164.620446,14.7973511 164.649762,13.9563956 C164.695788,12.6217289 164.935007,11.3205733 165.372987,10.0555289 C165.864616,8.63390667 166.577287,7.32957333 167.513638,6.14426222 C167.980935,5.55319556 168.495137,5.00517333 169.059469,4.50337333 C170.912531,2.85526222 173.066961,1.80197333 175.517189,1.33744 C176.265919,1.19559556 177.021977,1.12366222 177.784779,1.10864 C178.645788,1.09188444 179.500055,1.15428444 180.347287,1.29872889 C181.872596,1.55901778 183.313769,2.05937333 184.665821,2.80528444 C185.416896,3.21955111 186.123117,3.69795111 186.779208,4.24741778 C186.866863,4.32079556 186.951,4.39850667 187.041,4.46870667 C187.106668,4.52012889 187.10315,4.55826222 187.049795,4.62008444 C186.471391,5.28539556 185.896505,5.95301778 185.321033,6.62035111 C184.684583,7.35817333 184.047254,8.09512889 183.41315,8.83497333 C183.362726,8.89390667 183.330479,8.89188444 183.274485,8.84826222 C182.978101,8.62004 182.683476,8.39037333 182.381814,8.17024 C181.94999,7.85506222 181.468329,7.62828444 180.971717,7.43241778 C180.471879,7.23568444 179.957384,7.08864 179.426765,6.99966222 C178.454648,6.83701778 177.485463,6.84597333 176.51657,7.04386222 C175.462075,7.25966222 174.496114,7.67075111 173.620446,8.28810667 C172.597026,9.01032889 171.810186,9.93015111 171.24644,11.0391956 C170.923378,11.6738844 170.688264,12.3371733 170.55341,13.0336844 C170.265528,14.51684 170.41328,15.9583956 170.992564,17.3563289 C171.338492,18.1920844 171.823378,18.9408844 172.440479,19.6085067 C173.229078,20.4618844 174.166896,21.1035067 175.241326,21.5579289 C175.955169,21.8598178 176.699208,22.0461511 177.470805,22.1134622 C178.272889,22.1836622 179.069111,22.13744 179.856244,21.9557289 C180.715202,21.7575511 181.515821,21.4256178 182.256049,20.9541511 C182.750023,20.63984 183.201195,20.2743956 183.605169,19.8529067 C184.333671,19.0922622 184.871912,18.2172178 185.223117,17.2300844 C185.25302,17.14544 185.28556,17.0616622 185.308427,16.9752844 C185.330707,16.8903511 185.368231,16.8764844 185.450609,16.9085511 C185.902075,17.0836178 186.3553,17.2537733 186.807938,17.4253733 C188.100772,17.9156178 189.393606,18.4058622 190.686147,18.8961067 C190.716928,18.9076622 190.745951,18.9215289 190.78758,18.93944" id="Fill-2" fill="#69D1C5" sketch:type="MSShapeGroup" mask="url(#mask-2)"></path>
            </g>
        </g>
    </g>
</svg>