<?xml version="1.0" encoding="UTF-8" standalone="no"?>
<svg width="191px" height="33px" viewBox="0 0 191 33" version="1.1" xmlns="http://www.w3.org/2000/svg" xmlns:xlink="http://www.w3.org/1999/xlink" xmlns:sketch="http://www.bohemiancoding.com/sketch/ns">
    <!-- Generator: Sketch 3.4.4 (17249) - http://www.bohemiancoding.com/sketch -->
    <title>Page 1</title>
    <desc>Created with Sketch.</desc>
    <defs>
        <path id="path-1" d="M0.120521173,38.8541111 L190.78758,38.8541111 L190.78758,0.143 L0.120521173,0.143 L0.120521173,38.8541111 Z"></path>
    </defs>
    <g id="Quem-somos" stroke="none" stroke-width="1" fill="none" fill-rule="evenodd" sketch:type="MSPage">
        <g id="Quem-Somos-Desktop" sketch:type="MSArtboardGroup" transform="translate(-172.000000, -37.000000)">
            <g id="Page-1" sketch:type="MSLayerGroup" transform="translate(172.000000, 36.000000)">
                <mask id="mask-2" sketch:name="Clip 1" fill="white">
                    <use xlink:href="#path-1"></use>
                </mask>
                <g id="Clip-1"></g>
                <text id="Cred" sketch:type="MSTextLayer" mask="url(#mask-2)" font-family="Montserrat" font-size="31.7752182" font-weight="bold" letter-spacing="-0.0134853423" fill="#FFFFFF">
                    <tspan x="0.120521173" y="32.2769221">Cre</tspan>
                    <tspan x="54.7652157" y="32.2769221">d</tspan>
                </text>
                <text id="e" sketch:type="MSTextLayer" mask="url(#mask-2)" font-family="Montserrat" font-size="31.7752182" font-weight="bold" fill="#FFFFFF">
                    <tspan x="75.7886065" y="32.2769221">e</tspan>
                </text>
                <text id="s" sketch:type="MSTextLayer" mask="url(#mask-2)" font-family="Montserrat" font-size="31.7752182" font-weight="bold" fill="#FFFFFF">
                    <tspan x="94.4556279" y="32.2769221">s</tspan>
                </text>
                <text id="tilo" sketch:type="MSTextLayer" mask="url(#mask-2)" font-family="Montserrat" font-size="31.7752182" font-weight="bold" letter-spacing="-0.0131921831" fill="#FFFFFF">
                    <tspan x="109.199329" y="32.2769221">til</tspan>
                    <tspan x="143.06391" y="32.2769221">o</tspan>
                </text>
                <path d="M191.78758,18.93944 C191.71986,19.0873511 191.656244,19.2286178 191.59087,19.3687289 C191.264583,20.0663956 190.93214,20.7608844 190.52201,21.4163733 C189.86885,22.4607067 189.088166,23.4001733 188.172042,24.2324622 C186.768101,25.5079067 185.160707,26.4410178 183.352498,27.0398844 C182.429046,27.3455289 181.481261,27.5442844 180.512075,27.6373067 C179.579534,27.7268622 178.64758,27.7187733 177.715919,27.6121733 C176.805951,27.5073067 175.91973,27.3030622 175.049339,27.0245733 C174.597287,26.87984 174.132629,26.7934622 173.656831,26.7871067 C173.126212,26.7801733 172.613476,26.8833067 172.125658,27.0889956 C171.860935,27.2002178 171.602661,27.32704 171.346147,27.4555956 C169.920511,28.1700178 168.411326,28.6293511 166.838524,28.8985956 C166.672596,28.9269067 166.505788,28.9531956 166.317873,28.9843956 C166.370935,28.90784 166.411977,28.8468844 166.455365,28.7873733 C166.877221,28.2038178 167.308459,27.62604 167.719762,27.0352622 C168.16302,26.3991289 168.512173,25.7173511 168.727352,24.96884 C169.026375,23.9259511 168.82644,22.9749289 168.212564,22.09844 C167.795104,21.5024622 167.388785,20.9009956 167.056635,20.2538844 C166.441,19.0552844 166.025593,17.7925511 165.810121,16.4662622 C165.675267,15.6345511 165.620446,14.7973511 165.649762,13.9563956 C165.695788,12.6217289 165.935007,11.3205733 166.372987,10.0555289 C166.864616,8.63390667 167.577287,7.32957333 168.513638,6.14426222 C168.980935,5.55319556 169.495137,5.00517333 170.059469,4.50337333 C171.912531,2.85526222 174.066961,1.80197333 176.517189,1.33744 C177.265919,1.19559556 178.021977,1.12366222 178.784779,1.10864 C179.645788,1.09188444 180.500055,1.15428444 181.347287,1.29872889 C182.872596,1.55901778 184.313769,2.05937333 185.665821,2.80528444 C186.416896,3.21955111 187.123117,3.69795111 187.779208,4.24741778 C187.866863,4.32079556 187.951,4.39850667 188.041,4.46870667 C188.106668,4.52012889 188.10315,4.55826222 188.049795,4.62008444 C187.471391,5.28539556 186.896505,5.95301778 186.321033,6.62035111 C185.684583,7.35817333 185.047254,8.09512889 184.41315,8.83497333 C184.362726,8.89390667 184.330479,8.89188444 184.274485,8.84826222 C183.978101,8.62004 183.683476,8.39037333 183.381814,8.17024 C182.94999,7.85506222 182.468329,7.62828444 181.971717,7.43241778 C181.471879,7.23568444 180.957384,7.08864 180.426765,6.99966222 C179.454648,6.83701778 178.485463,6.84597333 177.51657,7.04386222 C176.462075,7.25966222 175.496114,7.67075111 174.620446,8.28810667 C173.597026,9.01032889 172.810186,9.93015111 172.24644,11.0391956 C171.923378,11.6738844 171.688264,12.3371733 171.55341,13.0336844 C171.265528,14.51684 171.41328,15.9583956 171.992564,17.3563289 C172.338492,18.1920844 172.823378,18.9408844 173.440479,19.6085067 C174.229078,20.4618844 175.166896,21.1035067 176.241326,21.5579289 C176.955169,21.8598178 177.699208,22.0461511 178.470805,22.1134622 C179.272889,22.1836622 180.069111,22.13744 180.856244,21.9557289 C181.715202,21.7575511 182.515821,21.4256178 183.256049,20.9541511 C183.750023,20.63984 184.201195,20.2743956 184.605169,19.8529067 C185.333671,19.0922622 185.871912,18.2172178 186.223117,17.2300844 C186.25302,17.14544 186.28556,17.0616622 186.308427,16.9752844 C186.330707,16.8903511 186.368231,16.8764844 186.450609,16.9085511 C186.902075,17.0836178 187.3553,17.2537733 187.807938,17.4253733 C189.100772,17.9156178 190.393606,18.4058622 191.686147,18.8961067 C191.716928,18.9076622 191.745951,18.9215289 191.78758,18.93944" id="Fill-2" fill="#69D1C5" sketch:type="MSShapeGroup" mask="url(#mask-2)"></path>
            </g>
        </g>
    </g>
</svg>